<svg preserveAspectRatio="none" width="100%" height="100%" overflow="visible" style="display: block;" viewBox="0 0 16.5129 36" fill="none" xmlns="http://www.w3.org/2000/svg">
<path id="Logo" d="M16.5017 15.6279C16.3887 17.569 15.5228 19.4099 14.5661 21.0687C13.4816 22.9491 12.1869 24.6986 10.9137 26.4531C10.7563 26.6701 10.5977 26.8873 10.4391 27.1052H13.8457C13.8764 27.1052 14.0654 27.3148 14.0559 27.3055C14.2227 27.4689 14.3882 27.6337 14.5533 27.7989C14.7185 27.964 14.8833 28.1295 15.0467 28.2963C15.0785 28.3288 15.2128 28.5065 15.247 28.5065H9.43896C8.83066 29.3877 8.25868 30.2936 7.79146 31.2515C7.30637 32.2461 6.83741 33.5217 7.28832 34.5987H10.4057C10.4364 34.5987 10.6254 34.8083 10.6159 34.7989C10.7828 34.9624 10.9482 35.1272 11.1134 35.2924C11.2785 35.4575 11.4434 35.623 11.6067 35.7898C11.6385 35.8223 11.7728 36 11.807 36H4.14695C4.11629 36 3.92731 35.7904 3.9368 35.7997C3.76991 35.6364 3.60448 35.4715 3.43933 35.3064C3.27423 35.1412 3.10932 34.9758 2.94596 34.8089C2.91415 34.7764 2.77989 34.5987 2.7457 34.5987H7.03305C6.93448 34.4991 6.8362 34.3994 6.73792 34.2998C6.23397 33.7889 5.81071 33.3052 5.7244 32.5679C5.64967 31.9293 5.80851 31.2821 6.02867 30.6866C6.30945 29.9271 6.68962 29.2043 7.11652 28.5065H6.53557C6.37279 28.5065 6.13447 28.5513 5.97649 28.5065C5.96782 28.504 5.95579 28.5097 5.9474 28.5065C5.91119 28.4925 5.87463 28.44 5.84756 28.4144C5.67269 28.2483 5.50314 28.0762 5.33238 27.9058C5.02308 27.5974 4.65975 27.2957 4.40269 26.9365C4.22296 26.6855 4.1359 26.3819 4.10507 26.0776C4.02143 25.2516 4.28659 24.3997 4.5849 23.6407C5.37397 21.6332 6.66752 19.7628 8.14455 18.2006C8.7676 17.5416 9.45342 16.9002 10.2464 16.4497C10.7281 16.1759 11.3869 15.893 11.9308 16.1614C12.0705 16.2304 12.1817 16.3354 12.2925 16.4431C12.6165 16.758 12.936 17.0777 13.2537 17.3992C13.3179 17.4642 13.7492 17.9068 13.4954 17.6602C13.5527 17.7159 13.4171 17.6092 13.3831 17.5898C13.3205 17.5541 13.2539 17.5258 13.185 17.5047C13.0449 17.4619 12.8973 17.4516 12.7518 17.4619C12.3964 17.4869 12.0541 17.6309 11.7438 17.7978C10.8378 18.2849 10.0669 19.0307 9.3773 19.7829C8.53374 20.7031 7.78336 21.7132 7.13364 22.7788C6.53945 23.7533 6.00432 24.7942 5.696 25.8978C5.58667 26.2889 5.5043 26.6969 5.49452 27.1052H8.04286C8.28083 26.7649 8.52182 26.429 8.75928 26.0963C10.0156 24.3364 11.3273 22.6136 12.486 20.7863C13.5449 19.1165 14.5435 17.3139 14.9478 15.3592C15.3152 13.5823 15.0374 11.7811 13.9299 10.3144C13.8589 10.2204 13.7856 10.1282 13.7097 10.0382C13.5941 9.90096 13.2922 9.59259 13.5417 9.84329C13.4827 9.78354 13.4237 9.72361 13.3659 9.6627C13.308 9.60179 13.2492 9.56986 13.3006 9.58663C13.4049 9.62064 13.5577 9.83624 13.6268 9.90449C13.8079 10.0833 13.9882 10.263 14.1674 10.4437C14.957 11.2396 15.6955 12.0399 16.1154 13.0968C16.4346 13.9 16.5518 14.7672 16.5017 15.6279ZM8.69316 13.7171C7.43143 15.3705 6.10925 16.9783 4.90004 18.6714C3.82712 20.1735 2.76901 21.7758 2.20369 23.5486C1.94731 24.3525 1.80183 25.2102 1.91746 26.0529C1.97172 26.4486 2.08441 26.8353 2.25523 27.1965C2.3472 27.3909 2.45549 27.5776 2.57748 27.7547C2.64106 27.8471 2.70833 27.937 2.77902 28.0241C2.87637 28.1443 3.21893 28.4929 2.77462 28.0441C2.79886 28.0686 3.28922 28.5642 3.01642 28.3051C2.68895 27.9941 2.37294 27.6699 2.05525 27.349C1.43295 26.7203 0.883069 26.0789 0.634101 25.2127C0.432682 24.5118 0.439914 23.7698 0.571339 23.0568C0.896316 21.293 1.86702 19.675 2.85104 18.2049C3.77558 16.8237 4.79795 15.5122 5.8232 14.2045C5.81534 14.19 5.81291 14.1795 5.81707 14.1739C6.37696 13.4245 6.72912 12.5326 6.68794 11.5866C6.65676 10.8703 6.39622 10.1589 6.00715 9.54944C5.52212 10.1792 5.0291 10.8029 4.54082 11.4297C3.67453 12.5414 2.78607 13.6593 2.07885 14.8819C1.80258 15.3595 1.53331 15.8734 1.42653 16.4198C1.38771 16.6183 1.371 16.8257 1.409 17.0258C1.42502 17.1098 1.45001 17.1923 1.48628 17.27C1.50427 17.3084 1.52666 17.3437 1.54725 17.3806C1.56143 17.406 1.66266 17.5218 1.58491 17.442C1.84759 17.7116 1.34832 17.2243 1.32403 17.2003C1.00252 16.8826 0.68327 16.5628 0.367896 16.2391C-0.2573 15.5974 0.0300759 14.7564 0.379926 14.0365C0.962895 12.8369 1.80634 11.7594 2.61462 10.7064C3.59267 9.43213 4.60526 8.18399 5.55387 6.88721C6.39501 5.73735 7.23522 4.53647 7.7803 3.21227C8.00809 2.65898 8.19088 2.06213 8.18406 1.4581C8.18117 1.20121 8.14166 0.943855 8.05182 0.702523C8.01017 0.590418 7.95811 0.482305 7.89622 0.379918C7.86469 0.327857 7.83074 0.277242 7.79441 0.228363C7.74339 0.159815 7.56268 -0.0278949 7.74975 0.162128C7.68878 0.0998284 7.59438 0.00247401 7.59681 4.44909e-05C7.60063 -0.00371548 7.83953 0.232179 7.80696 0.200306C8.14067 0.527019 8.47051 0.857954 8.7978 1.19114C9.17542 1.57547 9.47101 1.95957 9.55674 2.50511C9.63471 3.00137 9.54794 3.51151 9.40553 3.98804C9.01518 5.29443 8.22976 6.48061 7.45642 7.58818C7.01558 8.21957 6.5546 8.83626 6.08559 9.44699C6.19012 9.55227 6.29476 9.65738 6.39871 9.76312C6.95889 10.3332 7.47134 10.9582 7.78272 11.6788C8.48856 10.7392 9.15945 9.77075 9.70112 8.73393C10.0386 8.08779 10.3434 7.38416 10.4076 6.65004C10.4335 6.35491 10.4163 6.05429 10.3326 5.76905C10.2908 5.62692 10.2331 5.48971 10.1602 5.36072C10.0607 5.18475 9.69643 4.79915 10.0956 5.20303C9.96588 5.07143 9.69834 4.7984 9.91584 5.00497C10.2433 5.31589 10.5602 5.63948 10.877 5.9611C11.3594 6.45076 11.7585 6.90132 11.8131 7.61236C11.8591 8.21019 11.6875 8.8089 11.4655 9.35774C10.8212 10.9499 9.72686 12.3624 8.69316 13.7171ZM4.21313 31.3593C3.75094 31.848 3.28881 32.3366 2.82662 32.8251C2.82923 32.8224 1.40235 31.4482 1.42537 31.4239C1.8875 30.9353 2.34969 30.4466 2.81182 29.958C2.80921 29.9608 4.23609 31.335 4.21313 31.3593ZM13.5996 13.3659L12.2131 14.8316C12.2158 14.8289 10.7888 13.4547 10.8119 13.4304L12.1983 11.9646C12.1957 11.9673 13.6226 13.3415 13.5996 13.3659Z" fill="var(--fill-0, #506A6A)"/>
</svg>
