<svg preserveAspectRatio="none" width="100%" height="100%" overflow="visible" style="display: block;" viewBox="0 0 192 418" fill="none" xmlns="http://www.w3.org/2000/svg">
<path id="Logo" d="M191.871 181.457C190.556 203.995 180.488 225.371 169.364 244.631C156.754 266.464 141.701 286.778 126.897 307.15C125.066 309.67 123.223 312.192 121.379 314.722H160.988C161.344 314.722 163.542 317.155 163.431 317.047C165.372 318.944 167.295 320.858 169.216 322.776C171.136 324.693 173.052 326.614 174.952 328.552C175.322 328.929 176.883 330.992 177.281 330.992H109.75C102.677 341.224 96.026 351.742 90.5935 362.865C84.9532 374.413 79.5005 389.224 84.7434 401.73H120.99C121.347 401.73 123.545 404.163 123.434 404.054C125.374 405.952 127.298 407.866 129.219 409.784C131.139 411.701 133.055 413.622 134.955 415.56C135.325 415.937 136.886 418 137.283 418H48.2178C47.8613 418 45.664 415.567 45.7743 415.675C43.8339 413.778 41.9103 411.864 39.99 409.946C38.0705 408.029 36.1529 406.108 34.2535 404.17C33.8836 403.793 32.3225 401.73 31.925 401.73H81.7752C80.6292 400.573 79.4864 399.415 78.3437 398.259C72.4841 392.327 67.5628 386.71 66.5593 378.15C65.6903 370.735 67.5372 363.219 70.0971 356.305C73.3618 347.487 77.7821 339.095 82.7458 330.992H75.991C74.0983 330.992 71.3273 331.513 69.4904 330.992C69.3895 330.963 69.2496 331.03 69.1521 330.992C68.7311 330.83 68.306 330.22 67.9912 329.922C65.958 327.994 63.9866 325.996 62.0011 324.018C58.4048 320.436 54.1803 316.933 51.1913 312.763C49.1016 309.848 48.0893 306.323 47.7309 302.789C46.7583 293.2 49.8414 283.307 53.31 274.495C62.4847 251.186 77.5252 229.468 94.699 211.329C101.943 203.678 109.918 196.23 119.138 190.999C124.738 187.821 132.398 184.535 138.723 187.652C140.348 188.453 141.64 189.672 142.928 190.923C146.696 194.58 150.411 198.291 154.104 202.024C154.851 202.779 159.866 207.918 156.915 205.054C157.581 205.701 156.005 204.462 155.609 204.237C154.881 203.822 154.107 203.494 153.306 203.249C151.677 202.752 149.96 202.632 148.269 202.752C144.136 203.042 140.157 204.714 136.549 206.652C126.014 212.308 117.051 220.967 109.033 229.702C99.2242 240.386 90.4994 252.115 82.9449 264.487C76.0361 275.802 69.8139 287.888 66.229 300.702C64.9579 305.244 64.0001 309.98 63.8864 314.722H93.5166C96.2836 310.771 99.0856 306.87 101.847 303.007C116.454 282.573 131.706 262.57 145.179 241.352C157.491 221.963 169.101 201.033 173.802 178.338C178.074 157.706 174.845 136.791 161.967 119.762C161.142 118.67 160.289 117.6 159.407 116.554C158.062 114.961 154.553 111.381 157.454 114.292C156.767 113.598 156.081 112.902 155.409 112.195C154.736 111.487 154.052 111.117 154.65 111.311C155.862 111.706 157.639 114.21 158.443 115.002C160.548 117.078 162.645 119.164 164.729 121.263C173.91 130.505 182.496 139.797 187.379 152.069C191.09 161.395 192.453 171.464 191.871 181.457ZM101.078 159.271C86.4074 178.469 71.034 197.137 56.9742 216.795C44.4991 234.237 32.1961 252.841 25.6229 273.425C22.642 282.76 20.9504 292.719 22.2949 302.503C22.9258 307.097 24.236 311.588 26.2222 315.781C27.2916 318.039 28.5507 320.206 29.9691 322.263C30.7083 323.335 31.4905 324.38 32.3124 325.391C33.4444 326.786 37.4275 330.834 32.2613 325.624C32.5431 325.908 38.2447 331.662 35.0727 328.653C31.2652 325.043 27.5909 321.278 23.897 317.552C16.6613 310.252 10.2677 302.805 7.37288 292.747C5.03092 284.609 5.115 275.994 6.64312 267.715C10.4217 247.236 21.7084 228.448 33.1498 211.379C43.8998 195.342 55.7871 180.114 67.7081 164.929C67.6166 164.762 67.5883 164.64 67.6368 164.575C74.1467 155.874 78.2415 145.517 77.7626 134.534C77.4001 126.216 74.3707 117.956 69.8469 110.88C64.2072 118.192 58.4748 125.434 52.7975 132.711C42.7248 145.619 32.3945 158.6 24.1714 172.796C20.9592 178.341 17.8283 184.307 16.5867 190.652C16.1354 192.957 15.941 195.365 16.3829 197.688C16.5692 198.664 16.8597 199.622 17.2814 200.524C17.4906 200.97 17.7509 201.379 17.9904 201.809C18.1551 202.103 19.3322 203.447 18.4282 202.521C21.4824 205.651 15.6773 199.993 15.3948 199.714C11.6566 196.026 7.94458 192.312 4.27763 188.554C-2.9917 181.104 0.349701 171.338 4.41751 162.979C11.1959 149.051 21.0029 136.54 30.4009 124.313C41.7731 109.517 53.5467 95.0252 64.5765 79.9681C74.3566 66.617 84.1259 52.6735 90.4637 37.298C93.1124 30.8737 95.2378 23.9436 95.1584 16.9302C95.1248 13.9474 94.6654 10.9592 93.6209 8.15707C93.1366 6.85541 92.5313 5.60009 91.8116 4.41127C91.445 3.80678 91.0502 3.21909 90.6279 2.65154C90.0346 1.85563 87.9335 -0.32389 90.1086 1.88249C89.3997 1.15912 88.302 0.028726 88.3303 0.000516589C88.3747 -0.0431408 91.1525 2.69586 90.7738 2.32578C94.654 6.11927 98.4891 9.96179 102.295 13.8305C106.685 18.293 110.122 22.7528 111.119 29.0871C112.026 34.8492 111.017 40.7725 109.361 46.3056C104.822 61.4742 95.6897 75.2471 86.6979 88.1072C81.5721 95.4383 76.2123 102.599 70.7589 109.69C71.9743 110.912 73.191 112.133 74.3996 113.361C80.913 119.98 86.8714 127.237 90.492 135.604C98.6989 124.694 106.5 113.449 112.798 101.411C116.722 93.9083 120.266 85.7383 121.013 77.2143C121.313 73.7876 121.114 70.297 120.14 66.9851C119.654 65.3348 118.983 63.7417 118.135 62.2439C116.979 60.2007 112.743 55.7235 117.384 60.413C115.876 58.885 112.765 55.7148 115.294 58.1132C119.102 61.7234 122.786 65.4806 126.47 69.215C132.079 74.9005 136.719 80.132 137.355 88.388C137.889 95.3295 135.894 102.281 133.312 108.654C125.822 127.141 113.097 143.541 101.078 159.271ZM48.9872 364.117C43.6133 369.79 38.24 375.464 32.866 381.136C32.8962 381.105 16.3055 365.148 16.5732 364.866C21.9465 359.193 27.3205 353.519 32.6938 347.846C32.6635 347.878 49.2543 363.835 48.9872 364.117ZM158.127 155.193L142.006 172.212C142.036 172.18 125.445 156.224 125.713 155.942L141.833 138.922C141.803 138.954 158.394 154.91 158.127 155.193Z" fill="var(--fill-0, #D3E2E2)"/>
</svg>
