<svg preserveAspectRatio="none" width="100%" height="100%" overflow="visible" style="display: block;" viewBox="0 0 192 418.582" fill="none" xmlns="http://www.w3.org/2000/svg">
<path id="Logo" d="M191.871 181.71C190.556 204.28 180.488 225.685 169.364 244.972C156.754 266.836 141.701 287.177 126.897 307.578C125.066 310.101 123.223 312.627 121.379 315.16H160.988C161.344 315.16 163.542 317.597 163.431 317.489C165.372 319.388 167.295 321.305 169.216 323.225C171.136 325.145 173.052 327.069 174.952 329.01C175.322 329.387 176.883 331.453 177.281 331.453H109.75C102.677 341.699 96.026 352.232 90.5935 363.37C84.9532 374.935 79.5005 389.766 84.7434 402.29H120.99C121.347 402.29 123.545 404.726 123.434 404.617C125.374 406.517 127.298 408.434 129.219 410.355C131.139 412.275 133.055 414.198 134.955 416.139C135.325 416.516 136.886 418.582 137.283 418.582H48.2178C47.8613 418.582 45.664 416.146 45.7743 416.254C43.8339 414.354 41.9103 412.438 39.99 410.517C38.0705 408.597 36.1529 406.673 34.2535 404.733C33.8836 404.355 32.3225 402.29 31.925 402.29H81.7752C80.6292 401.131 79.4864 399.972 78.3437 398.814C72.4841 392.873 67.5628 387.249 66.5593 378.676C65.6903 371.252 67.5372 363.725 70.0971 356.802C73.3618 347.971 77.7821 339.567 82.7458 331.453H75.991C74.0983 331.453 71.3273 331.974 69.4904 331.453C69.3895 331.424 69.2496 331.491 69.1521 331.453C68.7311 331.29 68.306 330.68 67.9912 330.382C65.958 328.451 63.9866 326.45 62.0011 324.469C58.4048 320.883 54.1803 317.375 51.1913 313.199C49.1016 310.279 48.0893 306.75 47.7309 303.211C46.7583 293.608 49.8414 283.702 53.31 274.877C62.4847 251.536 77.5252 229.788 94.699 211.624C101.943 203.961 109.918 196.504 119.138 191.265C124.738 188.082 132.398 184.792 138.723 187.914C140.348 188.715 141.64 189.937 142.928 191.189C146.696 194.851 150.411 198.567 154.104 202.306C154.851 203.062 159.866 208.208 156.915 205.34C157.581 205.987 156.005 204.747 155.609 204.522C154.881 204.106 154.107 203.778 153.306 203.532C151.677 203.035 149.96 202.914 148.269 203.034C144.136 203.325 140.157 204.999 136.549 206.94C126.014 212.604 117.051 221.275 109.033 230.022C99.2242 240.72 90.4994 252.466 82.9449 264.856C76.0361 276.186 69.8139 288.289 66.229 301.121C64.9579 305.669 64.0001 310.412 63.8864 315.16H93.5166C96.2836 311.204 99.0856 307.297 101.847 303.429C116.454 282.966 131.706 262.935 145.179 241.688C157.491 222.273 169.101 201.314 173.802 178.586C178.074 157.926 174.845 136.982 161.967 119.928C161.142 118.835 160.289 117.764 159.407 116.717C158.062 115.121 154.553 111.536 157.454 114.451C156.767 113.756 156.081 113.059 155.409 112.351C154.736 111.643 154.052 111.271 154.65 111.467C155.862 111.862 157.639 114.369 158.443 115.162C160.548 117.241 162.645 119.33 164.729 121.432C173.91 130.686 182.496 139.992 187.379 152.28C191.09 161.619 192.453 171.703 191.871 181.71ZM101.078 159.493C86.4074 178.717 71.034 197.411 56.9742 217.097C44.4991 234.564 32.1961 253.194 25.6229 273.806C22.642 283.154 20.9504 293.126 22.2949 302.925C22.9258 307.525 24.236 312.022 26.2222 316.221C27.2916 318.482 28.5507 320.652 29.9691 322.712C30.7083 323.786 31.4905 324.832 32.3124 325.845C33.4444 327.241 37.4275 331.295 32.2613 326.077C32.5431 326.362 38.2447 332.124 35.0727 329.111C31.2652 325.495 27.5909 321.726 23.897 317.994C16.6613 310.684 10.2677 303.227 7.37288 293.155C5.03092 285.006 5.115 276.378 6.64312 268.088C10.4217 247.58 21.7084 228.767 33.1498 211.673C43.8998 195.614 55.7871 180.365 67.7081 165.159C67.6166 164.991 67.5883 164.869 67.6368 164.804C74.1467 156.091 78.2415 145.72 77.7626 134.721C77.4001 126.392 74.3707 118.12 69.8469 111.034C64.2072 118.357 58.4748 125.608 52.7975 132.896C42.7248 145.822 32.3945 158.821 24.1714 173.037C20.9592 178.589 17.8283 184.564 16.5867 190.918C16.1354 193.226 15.941 195.638 16.3829 197.963C16.5692 198.941 16.8597 199.9 17.2814 200.803C17.4906 201.25 17.7509 201.66 17.9904 202.09C18.1551 202.385 19.3322 203.731 18.4282 202.803C21.4824 205.938 15.6773 200.272 15.3948 199.993C11.6566 196.299 7.94458 192.58 4.27763 188.817C-2.9917 181.356 0.349701 171.576 4.41751 163.206C11.1959 149.259 21.0029 136.73 30.4009 124.486C41.7731 109.67 53.5467 95.1576 64.5765 80.0795C74.3566 66.7098 84.1259 52.7469 90.4637 37.35C93.1124 30.9167 95.2378 23.9769 95.1584 16.9538C95.1248 13.9668 94.6654 10.9745 93.6209 8.16843C93.1366 6.86496 92.5313 5.60789 91.8116 4.41741C91.445 3.81208 91.0502 3.22357 90.6279 2.65524C90.0346 1.85822 87.9335 -0.324342 90.1086 1.88511C89.3997 1.16073 88.302 0.028766 88.3303 0.000517309C88.3747 -0.0432009 91.1525 2.69962 90.7738 2.32902C94.654 6.1278 98.4891 9.97567 102.295 13.8498C106.685 18.3185 110.122 22.7844 111.119 29.1276C112.026 34.8978 111.017 40.8293 109.361 46.3701C104.822 61.5598 95.6897 75.3519 86.6979 88.2299C81.5721 95.5712 76.2123 102.742 70.7589 109.843C71.9743 111.067 73.191 112.289 74.3996 113.519C80.913 120.148 86.8714 127.414 90.492 135.793C98.6989 124.868 106.5 113.607 112.798 101.552C116.722 94.0391 120.266 85.8577 121.013 77.3219C121.313 73.8904 121.114 70.3949 120.14 67.0784C119.654 65.4258 118.983 63.8305 118.135 62.3306C116.979 60.2846 112.743 55.8011 117.384 60.4971C115.876 58.967 112.765 55.7924 115.294 58.1942C119.102 61.8093 122.786 65.5718 126.47 69.3114C132.079 75.0048 136.719 80.2436 137.355 88.5111C137.889 95.4623 135.894 102.424 133.312 108.805C125.822 127.318 113.097 143.741 101.078 159.493ZM48.9872 364.624C43.6133 370.305 38.24 375.987 32.866 381.667C32.8962 381.636 16.3055 365.657 16.5732 365.375C21.9465 359.693 27.3205 354.012 32.6938 348.33C32.6635 348.363 49.2543 364.341 48.9872 364.624ZM158.127 155.409L142.006 172.451C142.036 172.42 125.445 156.442 125.713 156.159L141.833 139.115C141.803 139.148 158.394 155.126 158.127 155.409Z" fill="var(--fill-0, #D3E2E2)"/>
</svg>
